<!-- icon666.com - MILLIONS OF FREE VECTOR ICONS --><svg fill="none" viewBox="0 0 512 512" xmlns="http://www.w3.org/2000/svg"><path d="m480 256c0 123.712-100.288 224-224 224s-224-100.288-224-224 100.288-224 224-224 224 100.288 224 224z" fill="#55bbf5"></path><path clip-rule="evenodd" d="m179.632 90.5214c-1.857-.8289-4.006-.6615-5.712.4448-1.705 1.1063-2.735 3.0009-2.735 5.0338v35.151l-66.047-12.761c-2.241-.433-4.533.443-5.9147 2.26-1.3812 1.817-1.6118 4.261-.5949 6.304l28.7076 57.686-26.876 19.638c-1.3195.965-2.1887 2.426-2.4064 4.045-.2178 1.62.2346 3.259 1.2526 4.537l37.3078 46.855c-15.22.664-27.356 13.213-27.356 28.597 0 15.809 12.815 28.625 28.624 28.625h5.153v3.083c0 24.546 12.857 47.298 33.883 59.963l32.082 19.324c32.376 19.5 72.88 19.5 105.256 0l32.081-19.324c21.027-12.665 33.883-35.417 33.883-59.963v-3.083h5.155c15.809 0 28.625-12.816 28.625-28.625s-12.816-28.624-28.625-28.624h-5.155v-31.177c11.854-12.734 17.438-27.729 17.11-43.157-.343-16.066-7.077-32.096-18.856-46.186-23.546-28.162-67.625-49.168-125.289-49.168-1.591 0-3.117.6322-4.242 1.7574-1.126 1.1252-1.758 2.6513-1.758 4.2426v24.687zm193.087 128.3926c8.93-10.215 12.861-21.7 12.613-33.304-.273-12.834-5.678-26.321-16.065-38.745-20.023-23.949-58.211-43.387-110.082-44.785v27.857c0 2.033-1.029 3.927-2.735 5.034-1.705 1.106-3.855 1.273-5.711.445l-67.554-30.166v33.171c0 1.791-.8 3.488-2.181 4.628s-3.199 1.603-4.957 1.263l-61.267-11.838 25.555 51.351c1.302 2.618.529 5.793-1.832 7.518l-25.914 18.935 30.446 38.236v-22.421c0-2.397 1.426-4.563 3.627-5.511l34.989-15.066c1.237-.533 2.188-1.569 2.612-2.847l.957-2.887c6.06-18.265 23.141-30.594 42.386-30.594 13.161 0 25.581 5.8 34.022 15.729 8.441-9.929 20.861-15.729 34.022-15.729 19.245 0 36.325 12.329 42.385 30.594l.958 2.887c.424 1.278 1.374 2.314 2.612 2.847zm-145.113-37.726c-14.074 0-26.564 9.016-30.996 22.373l-.958 2.887c-1.503 4.53-4.871 8.202-9.255 10.09l-31.362 13.504v89.978c0 20.338 10.653 39.19 28.075 49.684l32.081 19.323c28.567 17.207 64.306 17.207 92.873 0l32.082-19.323c17.422-10.494 28.074-29.346 28.074-49.684v-89.978l-31.361-13.504c-4.384-1.888-7.753-5.56-9.256-10.09l-.957-2.887c-4.432-13.357-16.923-22.373-30.996-22.373-10.572 0-20.491 5.118-26.616 13.734l-2.516 3.539c-1.126 1.583-2.948 2.523-4.89 2.523-1.943 0-3.765-.94-4.89-2.523l-2.516-3.539c-6.126-8.616-16.044-13.734-26.616-13.734zm157.769 123.749h-5.155v-33.249h5.155c9.182 0 16.625 7.443 16.625 16.624 0 9.182-7.443 16.625-16.625 16.625zm-242.34-33.249h-5.153c-9.181 0-16.624 7.443-16.624 16.624 0 9.182 7.443 16.625 16.624 16.625h5.153zm84.817 16.616c0 9.372-7.561 16.969-16.889 16.969-9.327 0-16.889-7.597-16.889-16.969 0-9.371 7.562-16.968 16.889-16.968 9.328 0 16.889 7.597 16.889 16.968zm84.443 16.969c9.328 0 16.889-7.597 16.889-16.969 0-9.371-7.561-16.968-16.889-16.968-9.327 0-16.889 7.597-16.889 16.968 0 9.372 7.562 16.969 16.889 16.969zm-101.333-56.211c-3.761 0-6.927.66-8.565 1.483-2.961 1.488-6.568.293-8.055-2.668-1.488-2.961-.293-6.567 2.668-8.055 3.991-2.005 9.27-2.76 13.952-2.76 4.683 0 9.962.755 13.953 2.76 2.961 1.488 4.156 5.094 2.668 8.055-1.487 2.961-5.094 4.156-8.055 2.668-1.638-.823-4.804-1.483-8.566-1.483zm92.767 1.483c1.638-.823 4.804-1.483 8.565-1.483 3.762 0 6.928.66 8.566 1.483 2.961 1.488 6.568.293 8.055-2.668 1.488-2.961.293-6.567-2.668-8.055-3.991-2.005-9.27-2.76-13.952-2.76-4.683 0-9.962.755-13.953 2.76-2.961 1.488-4.156 5.094-2.668 8.055 1.487 2.961 5.094 4.156 8.055 2.668zm-81.506 82.674c3.313 0 6 2.686 6 6 0 3.533.806 7.059 2.406 10.386 1.603 3.331 3.981 6.421 7.051 9.064 3.071 2.645 6.764 4.782 10.885 6.252 4.122 1.47 8.563 2.235 13.065 2.235s8.943-.765 13.065-2.235c4.121-1.47 7.814-3.607 10.885-6.252 3.07-2.643 5.449-5.733 7.051-9.064 1.6-3.327 2.406-6.853 2.406-10.386 0-3.314 2.687-6 6-6 3.314 0 6 2.686 6 6 0 5.38-1.232 10.68-3.592 15.588-2.359 4.903-5.785 9.296-10.034 12.955-4.248 3.658-9.244 6.521-14.685 8.462-5.44 1.94-11.248 2.932-17.096 2.932s-11.656-.992-17.096-2.932c-5.441-1.941-10.437-4.804-14.684-8.462-4.249-3.659-7.676-8.052-10.035-12.955-2.36-4.908-3.592-10.208-3.592-15.588 0-3.314 2.686-6 6-6z" fill="#fff" fill-rule="evenodd"></path></svg>