<!-- icon666.com - MILLIONS OF FREE VECTOR ICONS --><svg id="Layer_1" enable-background="new 0 0 512 512" viewBox="0 0 512 512" xmlns="http://www.w3.org/2000/svg"><g><ellipse cx="256" cy="256" fill="#77e041" rx="256.01" ry="256.01" transform="matrix(.707 -.707 .707 .707 -106.039 256)" style="fill: rgb(173, 173, 173);"></ellipse><path d="m507.81 302.37c-19.12 104.07-101.38 186.32-205.45 205.43-69.27-69.27-175.38-175.38-175.49-175.49-5.57-5.45-9.04-13.04-9.04-21.43v-144.26c0-16.53 13.45-29.98 29.98-29.98h181.89c8.4 0 15.99 3.47 21.44 9.05.1.1 88.57 88.57 156.67 156.68z" fill="#6bca3b" style="fill: rgb(153, 153, 153);"></path><g fill="#fff"><path d="m364.2 171.15h-4.52v-4.52c0-16.53-13.45-29.98-29.98-29.98h-181.9c-16.53 0-29.98 13.45-29.98 29.98v144.25c0 16.53 13.45 29.98 29.98 29.98h4.52v4.55c0 16.51 13.45 29.95 29.98 29.95h181.9c16.53 0 29.98-13.43 29.98-29.95v-144.29c-.01-16.53-13.45-29.97-29.98-29.97zm13.96 29.97v99.14l-80.17-68.12c-2.48-2.07-5.61-3.06-8.82-2.77-3.19.29-6.08 1.8-8.14 4.27l-36.2 43.44 96.8 82.26h-24.73l-101.44-86.19c-2.47-2.1-5.59-3.1-8.8-2.83s-6.12 1.79-8.2 4.28l-30.12 36.13v-109.61c0-7.7 6.26-13.96 13.96-13.96h181.9c7.7 0 13.96 6.26 13.96 13.96zm-230.36 123.72c-7.7 0-13.96-6.26-13.96-13.96v-144.26c0-7.7 6.26-13.96 13.96-13.96h181.9c7.7 0 13.96 6.26 13.96 13.96v4.52h-161.36c-16.53 0-29.98 13.45-29.98 29.98v123.72z" fill="#fff"></path><path d="m228.45 255.63c16.55 0 30.02-13.45 30.02-29.99 0-16.55-13.47-30.02-30.02-30.02-16.54 0-29.99 13.47-29.99 30.02 0 16.54 13.45 29.99 29.99 29.99z" fill="#fff"></path></g><g fill="#e6ecff"><path d="m273.25 242.98-28.42 34.1 28.42 24.15z" fill="#e6ecff"></path><path d="m228.45 195.62c-16.54 0-29.99 13.47-29.99 30.02 0 16.54 13.45 29.99 29.99 29.99 16.55 0 30.02-13.45 30.02-29.99 0-16.55-13.47-30.02-30.02-30.02z" fill="#e6ecff"></path><path d="m273.25 171.15h-90.95c-16.53 0-29.98 13.45-29.98 29.98v123.72h-4.52c-7.7 0-13.96-6.26-13.96-13.96v-144.27c0-7.7 6.26-13.96 13.96-13.96h90.95v-16.02h-90.95c-16.53 0-29.98 13.45-29.98 29.98v144.25c0 16.53 13.45 29.98 29.98 29.98h4.52v4.55c0 16.51 13.45 29.95 29.98 29.95h90.95v-53.11l-57.79-49.1c-2.47-2.1-5.59-3.1-8.8-2.83s-6.12 1.79-8.2 4.28l-30.12 36.13v-109.6c0-7.7 6.26-13.96 13.96-13.96h90.95z" fill="#e6ecff"></path></g></g></svg>