<!-- icon666.com - MILLIONS OF FREE VECTOR ICONS --><svg clip-rule="evenodd" fill-rule="evenodd" image-rendering="optimizeQuality" shape-rendering="geometricPrecision" text-rendering="geometricPrecision" viewBox="0 0 43.3492 43.3492" xmlns="http://www.w3.org/2000/svg"><g id="Layer_x0020_1"><circle cx="21.675" cy="21.675" fill="#039be5" r="21.675" style="fill: rgb(148, 148, 148);"></circle><g id="_409788944" fill="#fffffe"><path id="_409789832" d="m32.3631 35.433h-21.3769c-.1333 0-.2414-.1081-.2414-.2414.0001-.1333.1081-.2414.2413-.2414h21.377c.1333 0 .2413.1082.2413.2414 0 .1333-.1081.2414-.2413.2414z" fill="#fffffe" style="fill: rgb(240, 240, 240);"></path><path id="_409789496" d="m10.9862 35.433c-.1333 0-.2414-.1081-.2414-.2414l.0001-5.5658c0-3.1893 2.6844-5.7839 5.9843-5.7839h2.3617c.1332 0 .2411.1081.2411.2414.0001.1332-.1081.2413-.2414.2413h-2.3612c-3.0336 0-5.5019 2.3778-5.5019 5.3012l.0002 5.5658c0 .1333-.1083.2414-.2415.2414zm21.3769 0c-.1332 0-.2414-.1081-.2414-.2414l.0002-5.5658c0-2.9234-2.4679-5.3012-5.5013-5.3012h-1.5888c-.1333 0-.2415-.1081-.2415-.2413.0002-.1333.1081-.2414.2413-.2414h1.5892c3.2991 0 5.9836 2.5947 5.9836 5.7839v5.5658c0 .1333-.1081.2414-.2413.2414z" fill="#fffffe" style="fill: rgb(240, 240, 240);"></path><path id="_409789328" d="m17.2668 16.975c-.0993 0-.1932-.0622-.2277-.1615-.1528-.4375-.6889-1.1993-1.1616-1.8712-.2889-.4105-.5613-.7976-.7316-1.0886-.0667-.1144-.0711-.276.1062-.7637.1134-.3119.2797-.6933.4689-1.0755.2283-.4607.814-1.5707 1.3275-1.9152.1108-.0742.2608-.0446.335.066s.0446.2609-.066.3351c-.6328.4248-1.6845 2.7184-1.7304 3.1515.1622.2696.4167.6311.6851 1.0126.5149.7322 1.0472 1.489 1.2226 1.9893.0441.1257-.0227.2634-.1484.3074-.0262.0094-.0534.0138-.0796.0138z" fill="#fffffe" style="fill: rgb(240, 240, 240);"></path><path id="_409789088" d="m17.471 16.7462c-.015 2.0095.4914 3.6959 1.4644 4.877 1.161 1.4091 2.8674 1.9296 4.4539 1.357 2.0512-.7405 3.2697-3.0139 3.2628-6.0844l-.3475-2.9925c-.0012-.0107-.002-.0214-.0014-.0327.0028-.1452-.0716-.2765-.2269-.4004-1.1854-.9466-5.8473-.7586-6.7965-.5242-.0232.0057-.0471.0076-.0716.0063-.5015-.0276-.8712.0754-1.1296.3156-.5321.4952-.5512 1.5588-.5675 2.4965-.0062.3482-.0119.677-.0401.9818zm4.6211 6.9467c-1.3124 0-2.5854-.6165-3.5294-1.7624-1.0476-1.2722-1.5922-3.0698-1.5745-5.1987 0-.0069 0-.0145.0006-.0214.0285-.2885.0339-.6122.0396-.9541.0183-1.0346.0389-2.2069.7215-2.8417.3484-.3237.8341-.4739 1.4501-.4456 1.0321-.2327 5.8166-.4633 7.1774.6241.335.2671.4085.5626.4085.7693l.3471 2.9913c.0011.0088.0011.0182.0011.027.0066 1.7203-.3425 3.1881-1.0377 4.3628-.6251 1.0584-1.5053 1.8159-2.5431 2.1905-.4825.1741-.9749.2589-1.4612.2589z" fill="#fffffe" style="fill: rgb(240, 240, 240);"></path><path id="_409788992" d="m26.9294 17.1233c-.0849 0-.1667-.0446-.2113-.1238-.0422-.076-.0333-.1231-.0126-.2382.244-1.3458.3903-2.3042.4701-2.8712.1882-1.3382.2093-1.9246.1949-2.1811-.0005-.0069-.0006-.0132-.0006-.0201.0248-1.0213-1.2307-2.0207-3.3578-2.6738-2.8661-.88-6.1565-.8108-6.7713.1427-.2244.3482-.0609.8378.484 1.4544l1.7154 1.9391c.0879.0999.0785.2527-.0215.3407-.099.0886-.252.0792-.3406-.0208l-1.7146-1.939c-.8794-.995-.7726-1.6563-.5281-2.0359.4967-.7706 1.8787-.9573 2.951-.978 1.374-.0265 2.9662.2049 4.3672.6354 2.3747.7291 3.7217 1.8719 3.699 3.1371.022.4073-.0453 1.1698-.1993 2.2659-.0802.572-.2275 1.5368-.4726 2.8907-.0069.0365-.0114.0604-.0126.0698-.0104.0716-.0534.1377-.1213.1754-.0377.0207-.0779.0308-.1174.0307z" fill="#fffffe" style="fill: rgb(240, 240, 240);"></path><path id="_409788896" d="m22.0613 28.4686c-1.7712 0-3.212-1.4437-3.212-3.2181v-3.0982c0-.1338.1081-.2413.2413-.2413.1335 0 .2414.1075.2414.2414l.0001 3.0981c0 1.5085 1.2243 2.7354 2.7291 2.7354s2.7291-1.2269 2.7291-2.7354l.0002-3.0309c0-.1333.1079-.2413.2411-.2413.1334-.0001.2414.1081.2414.2413l.0003 3.0309c0 1.7744-1.4409 3.2181-3.212 3.2181z" fill="#fffffe" style="fill: rgb(240, 240, 240);"></path></g></g></svg>