<!-- icon666.com - MILLIONS OF FREE VECTOR ICONS --><svg id="Layer_1" viewBox="0 0 150 150" xmlns="http://www.w3.org/2000/svg" data-name="Layer 1"><path d="m139 140h-128a1 1 0 0 1 -1-1v-128a1 1 0 0 1 1-1h128a1 1 0 0 1 1 1v128a1 1 0 0 1 -1 1zm-127-2h126v-126h-126z" fill="#000000" style="fill: rgb(168, 168, 168);"></path><path d="m96.479 139.878a1 1 0 0 1 -.825-.432l-49.71-72.139-34.184 39.58a1 1 0 1 1 -1.513-1.307l35.029-40.56a1 1 0 0 1 1.58.086l50.444 73.205a1 1 0 0 1 -.822 1.567z" fill="#000000" style="fill: rgb(168, 168, 168);"></path><path d="m72.169 104.6a1 1 0 0 1 -.85-1.525l33.081-53.618a1 1 0 0 1 .834-.475.989.989 0 0 1 .85.448l33.751 50.922a1 1 0 0 1 -1.667 1.1l-32.892-49.614-32.255 52.29a1 1 0 0 1 -.852.472z" fill="#000000" style="fill: rgb(168, 168, 168);"></path><path d="m67.8 54.719a10.955 10.955 0 1 1 10.952-10.954 10.967 10.967 0 0 1 -10.952 10.954zm0-19.909a8.955 8.955 0 1 0 8.954 8.955 8.965 8.965 0 0 0 -8.954-8.955z" fill="#000000" style="fill: rgb(168, 168, 168);"></path><path d="m67.8 29.921a1 1 0 0 1 -1-1v-4.153a1 1 0 0 1 2 0v4.153a1 1 0 0 1 -1 1z" fill="#000000" style="fill: rgb(168, 168, 168);"></path><path d="m67.8 63.762a1 1 0 0 1 -1-1v-4.153a1 1 0 0 1 2 0v4.153a1 1 0 0 1 -1 1z" fill="#000000" style="fill: rgb(168, 168, 168);"></path><path d="m52.954 44.765h-4.154a1 1 0 0 1 0-2h4.154a1 1 0 0 1 0 2z" fill="#000000" style="fill: rgb(168, 168, 168);"></path><path d="m86.8 44.765h-4.158a1 1 0 0 1 0-2h4.158a1 1 0 0 1 0 2z" fill="#000000" style="fill: rgb(168, 168, 168);"></path><path d="m57.3 34.269a1 1 0 0 1 -.707-.293l-2.936-2.937a1 1 0 0 1 1.414-1.414l2.936 2.937a1 1 0 0 1 -.707 1.707z" fill="#000000" style="fill: rgb(168, 168, 168);"></path><path d="m81.23 58.2a1 1 0 0 1 -.707-.293l-2.936-2.937a1 1 0 0 1 1.413-1.416l2.936 2.937a1 1 0 0 1 -.706 1.709z" fill="#000000" style="fill: rgb(168, 168, 168);"></path><path d="m78.294 34.269a1 1 0 0 1 -.707-1.707l2.936-2.937a1 1 0 0 1 1.414 1.414l-2.937 2.937a1 1 0 0 1 -.706.293z" fill="#000000" style="fill: rgb(168, 168, 168);"></path><path d="m54.365 58.2a1 1 0 0 1 -.707-1.707l2.936-2.937a1 1 0 0 1 1.414 1.414l-2.936 2.937a1 1 0 0 1 -.707.293z" fill="#000000" style="fill: rgb(168, 168, 168);"></path></svg>