<!-- icon666.com - MILLIONS OF FREE VECTOR ICONS --><svg clip-rule="evenodd" fill-rule="evenodd" stroke-linejoin="round" stroke-miterlimit="2" viewBox="0 0 24 24" xmlns="http://www.w3.org/2000/svg"><g id="Icon"><g><path d="m1.5 6v12c0 .663.263 1.299.732 1.768s1.105.732 1.768.732h16c.663 0 1.299-.263 1.768-.732s.732-1.105.732-1.768v-12c0-.663-.263-1.299-.732-1.768s-1.105-.732-1.768-.732c-3.832 0-12.168 0-16 0-.663 0-1.299.263-1.768.732s-.732 1.105-.732 1.768z" fill="#84ade1"></path><path d="m2.001 19.501c.07.094.147.183.231.267.469.469 1.105.732 1.768.732h9.6l-.1-5.558c-.002-.13-.055-.253-.146-.345 0 0-1.482-1.481-2.642-2.641-.948-.949-2.477-.979-3.463-.069-1.912 1.765-5.088 4.696-5.088 4.696-.103.095-.161.228-.161.368v2.5c0 .016 0 .033.001.05z" fill="#8cc152"></path><path d="m3.851 20.496c.05.003.099.004.149.004h16c.663 0 1.299-.263 1.768-.732s.732-1.105.732-1.768v-2.5s-3.25-3.343-5.294-5.095c-.992-.85-2.471-.793-3.395.13z" fill="#a0d468"></path><path d="m1.5 6v12c0 .663.263 1.299.732 1.768s1.105.732 1.768.732h16c.663 0 1.299-.263 1.768-.732s.732-1.105.732-1.768v-12c0-.663-.263-1.299-.732-1.768s-1.105-.732-1.768-.732c-3.832 0-12.168 0-16 0-.663 0-1.299.263-1.768.732s-.732 1.105-.732 1.768zm1 0c0-.398.158-.779.439-1.061.282-.281.663-.439 1.061-.439h16c.398 0 .779.158 1.061.439.281.282.439.663.439 1.061v12c0 .398-.158.779-.439 1.061-.282.281-.663.439-1.061.439h-16c-.398 0-.779-.158-1.061-.439-.281-.282-.439-.663-.439-1.061z" fill="#e7e7e7"></path><path d="m2.646 3.354 18 18c.196.195.512.195.708 0 .195-.196.195-.512 0-.708l-18-18c-.196-.195-.512-.195-.708 0-.195.196-.195.512 0 .708z" fill="#ed5565"></path></g></g></svg>